<svg xmlns="http://www.w3.org/2000/svg" xmlns:xlink="http://www.w3.org/1999/xlink" contentStyleType="text/css" height="536px" preserveAspectRatio="none" style="width:1453px;height:536px;background:#FFFFFF;" version="1.1" viewBox="0 0 1453 536" width="1453px" zoomAndPan="magnify"><defs/><g><!--cluster Ascenda Loyalty Hotel Booking Platform--><g id="cluster_Ascenda Loyalty Hotel Booking Platform"><rect fill="none" height="359" rx="2.5" ry="2.5" style="stroke:#181818;stroke-width:1.0;" width="1117.5" x="329.5" y="99.9246"/><text fill="#000000" font-family="sans-serif" font-size="14" font-weight="bold" lengthAdjust="spacing" textLength="289.4678" x="743.5161" y="115.4597">Ascenda Loyalty Hotel Booking Platform</text></g><!--entity Guest--><g id="elem_Guest"><ellipse cx="204.6743" cy="283.4246" fill="#F1F1F1" rx="16" ry="16" style="stroke:#181818;stroke-width:0.5;"/><path d="M204.6743,303.4246 C208.6743,303.4246 211.6743,303.4246 215.6743,299.4246 C223.6743,299.4246 231.6743,307.4246 231.6743,315.4246 L231.6743,319.4246 C231.6743,323.4246 227.6743,327.4246 223.6743,327.4246 L185.6743,327.4246 C181.6743,327.4246 177.6743,323.4246 177.6743,319.4246 L177.6743,315.4246 C177.6743,307.4246 185.6743,299.4246 193.6743,299.4246 C197.6743,303.4246 200.6743,303.4246 204.6743,303.4246 " fill="#F1F1F1" style="stroke:#181818;stroke-width:0.5;"/><text fill="#000000" font-family="sans-serif" font-size="14" lengthAdjust="spacing" textLength="38.9785" x="145" y="341.4597">Guest</text><text fill="#000000" font-family="sans-serif" font-size="14" lengthAdjust="spacing" textLength="119.3486" x="145" y="357.948">(unauthenticated)</text></g><!--entity Member--><g id="elem_Member"><ellipse cx="56.9858" cy="417.4246" fill="#F1F1F1" rx="16" ry="16" style="stroke:#181818;stroke-width:0.5;"/><path d="M56.9858,437.4246 C60.9858,437.4246 63.9858,437.4246 67.9858,433.4246 C75.9858,433.4246 83.9858,441.4246 83.9858,449.4246 L83.9858,453.4246 C83.9858,457.4246 79.9858,461.4246 75.9858,461.4246 L37.9858,461.4246 C33.9858,461.4246 29.9858,457.4246 29.9858,453.4246 L29.9858,449.4246 C29.9858,441.4246 37.9858,433.4246 45.9858,433.4246 C49.9858,437.4246 52.9858,437.4246 56.9858,437.4246 " fill="#F1F1F1" style="stroke:#181818;stroke-width:0.5;"/><text fill="#000000" font-family="sans-serif" font-size="14" lengthAdjust="spacing" textLength="55.2686" x="6" y="475.4597">Member</text><text fill="#000000" font-family="sans-serif" font-size="14" lengthAdjust="spacing" textLength="101.9717" x="6" y="491.948">(authenticated)</text></g><!--entity Attacker--><g id="elem_Attacker"><ellipse cx="204.2744" cy="411.9129" fill="#F1F1F1" rx="16" ry="16" style="stroke:#181818;stroke-width:0.5;"/><path d="M204.2744,431.9129 C208.2744,431.9129 211.2744,431.9129 215.2744,427.9129 C223.2744,427.9129 231.2744,435.9129 231.2744,443.9129 L231.2744,447.9129 C231.2744,451.9129 227.2744,455.9129 223.2744,455.9129 L185.2744,455.9129 C181.2744,455.9129 177.2744,451.9129 177.2744,447.9129 L177.2744,443.9129 C177.2744,435.9129 185.2744,427.9129 193.2744,427.9129 C197.2744,431.9129 200.2744,431.9129 204.2744,431.9129 " fill="#F1F1F1" style="stroke:#181818;stroke-width:0.5;"/><text fill="#000000" font-family="sans-serif" font-size="14" lengthAdjust="spacing" textLength="56.7451" x="175.9019" y="469.948">Attacker</text><text fill="#000000" font-family="sans-serif" font-size="14" font-style="italic" lengthAdjust="spacing" textLength="62.5488" x="173" y="392.4597">&#171;misuse&#187;</text></g><g id="elem_GMN37"><path d="M301,50.4246 L301,80.8259 L338.544,363.3325 L301,88.8259 L301,91.0457 A0,0 0 0 0 301,91.0457 L632.7241,91.0457 A0,0 0 0 0 632.7241,91.0457 L632.7241,60.4246 L622.7241,50.4246 L301,50.4246 A0,0 0 0 0 301,50.4246 " fill="#FEFFDD" style="stroke:#181818;stroke-width:0.5;"/><path d="M622.7241,50.4246 L622.7241,60.4246 L632.7241,60.4246 L622.7241,50.4246 " fill="#FEFFDD" style="stroke:#181818;stroke-width:0.5;"/><text fill="#000000" font-family="sans-serif" font-size="13" lengthAdjust="spacing" textLength="225.5386" x="307" y="67.9929">Mitigated by Zod validation at every</text><text fill="#000000" font-family="sans-serif" font-size="13" lengthAdjust="spacing" textLength="310.7241" x="307" y="83.3035">route boundary + parameterized Drizzle queries.</text></g><g id="elem_GMN40"><path d="M311.5,-8.5754 L311.5,18.5434 L337.1684,287.0968 L311.5,26.5434 L311.5,32.0457 A0,0 0 0 0 311.5,32.0457 L622.2769,32.0457 A0,0 0 0 0 622.2769,32.0457 L622.2769,1.4246 L612.2769,-8.5754 L311.5,-8.5754 A0,0 0 0 0 311.5,-8.5754 " fill="#FEFFDD" style="stroke:#181818;stroke-width:0.5;"/><path d="M612.2769,-8.5754 L612.2769,1.4246 L622.2769,1.4246 L612.2769,-8.5754 " fill="#FEFFDD" style="stroke:#181818;stroke-width:0.5;"/><text fill="#000000" font-family="sans-serif" font-size="13" lengthAdjust="spacing" textLength="289.7769" x="317.5" y="8.9929">Mitigated by idempotent Stripe PaymentIntent</text><text fill="#000000" font-family="sans-serif" font-size="13" lengthAdjust="spacing" textLength="183.3584" x="317.5" y="24.3035">+ unique booking_reference.</text></g><g id="elem_UC1"><ellipse cx="883.8955" cy="348.8037" fill="#F1F1F1" rx="104.8955" ry="23.3791" style="stroke:#181818;stroke-width:0.5;"/><text fill="#000000" font-family="sans-serif" font-size="14" lengthAdjust="spacing" textLength="174.3711" x="796.71" y="352.0947">UC1: Search a destination</text></g><g id="elem_UC2"><ellipse cx="466.8205" cy="150.7887" fill="#F1F1F1" rx="104.8205" ry="23.3641" style="stroke:#181818;stroke-width:0.5;"/><text fill="#000000" font-family="sans-serif" font-size="14" lengthAdjust="spacing" textLength="174.207" x="379.717" y="154.0797">UC2: Browse hotel results</text></g><g id="elem_UC3"><ellipse cx="467.1311" cy="219.7508" fill="#F1F1F1" rx="122.1311" ry="26.8262" style="stroke:#181818;stroke-width:0.5;"/><text fill="#000000" font-family="sans-serif" font-size="14" lengthAdjust="spacing" textLength="211.5449" x="361.3587" y="223.0418">UC3: View hotel &amp; room details</text></g><g id="elem_UC4"><ellipse cx="884.2323" cy="278.071" fill="#F1F1F1" rx="136.2323" ry="29.6465" style="stroke:#181818;stroke-width:0.5;"/><text fill="#000000" font-family="sans-serif" font-size="14" lengthAdjust="spacing" textLength="241.3906" x="763.537" y="281.3621">UC4: Make a booking with payment</text></g><g id="elem_UC5"><ellipse cx="883.8172" cy="420.888" fill="#F1F1F1" rx="137.8172" ry="29.9634" style="stroke:#181818;stroke-width:0.5;"/><text fill="#000000" font-family="sans-serif" font-size="14" lengthAdjust="spacing" textLength="147.5537" x="810.0404" y="415.9349">UC5: Manage account</text><text fill="#000000" font-family="sans-serif" font-size="14" lengthAdjust="spacing" textLength="201.3457" x="783.1444" y="432.4232">(view points / delete account)</text></g><g id="elem_UCa"><ellipse cx="1310.958" cy="354.9162" fill="#F1F1F1" rx="127.958" ry="27.9916" style="stroke:#181818;stroke-width:0.5;"/><text fill="#000000" font-family="sans-serif" font-size="14" lengthAdjust="spacing" textLength="175.1709" x="1220.3725" y="350.6896">Autocomplete destination</text><text fill="#000000" font-family="sans-serif" font-size="14" lengthAdjust="spacing" textLength="165.9834" x="1224.9663" y="367.1779">(client-side fuzzy index)</text></g><g id="elem_UCb"><ellipse cx="884.163" cy="180.7425" fill="#F1F1F1" rx="80.163" ry="26.318" style="stroke:#181818;stroke-width:0.5;"/><text fill="#000000" font-family="sans-serif" font-size="14" lengthAdjust="spacing" textLength="97.125" x="835.6005" y="175.7894">Poll live prices</text><text fill="#000000" font-family="sans-serif" font-size="14" lengthAdjust="spacing" textLength="87.8691" x="840.2285" y="192.2777">(progressive)</text></g><g id="elem_UCauth"><ellipse cx="1310.8085" cy="281.7425" fill="#F1F1F1" rx="89.3085" ry="26.318" style="stroke:#181818;stroke-width:0.5;"/><text fill="#000000" font-family="sans-serif" font-size="14" lengthAdjust="spacing" textLength="85.9824" x="1267.8172" y="276.7894">Authenticate</text><text fill="#000000" font-family="sans-serif" font-size="14" lengthAdjust="spacing" textLength="110.0586" x="1255.7792" y="293.2777">(Supabase Auth)</text></g><g id="elem_UCearn"><ellipse cx="1311.1199" cy="217.9486" fill="#F1F1F1" rx="83.1199" ry="19.024" style="stroke:#181818;stroke-width:0.5;"/><text fill="#000000" font-family="sans-serif" font-size="14" lengthAdjust="spacing" textLength="125.4053" x="1248.4173" y="221.2396">Earn loyalty points</text></g><g id="elem_UCpay"><ellipse cx="1310.9537" cy="153.7425" fill="#F1F1F1" rx="106.4537" ry="26.318" style="stroke:#181818;stroke-width:0.5;"/><text fill="#000000" font-family="sans-serif" font-size="14" lengthAdjust="spacing" textLength="89.8311" x="1266.0382" y="148.7894">Pay via Stripe</text><text fill="#000000" font-family="sans-serif" font-size="14" lengthAdjust="spacing" textLength="134.3057" x="1243.8009" y="165.2777">(3DS / OTP resume)</text></g><g id="elem_UCgdpr"><ellipse cx="1310.9636" cy="425.8173" fill="#F1F1F1" rx="112.4636" ry="24.8927" style="stroke:#181818;stroke-width:0.5;"/><text fill="#000000" font-family="sans-serif" font-size="14" lengthAdjust="spacing" textLength="190.8115" x="1215.5578" y="429.1083">Delete personal data (GDPR)</text></g><g id="elem_MC1"><ellipse cx="467.0646" cy="368.9375" fill="#F1F1F1" rx="128.0646" ry="28.0129" style="stroke:#181818;stroke-width:0.5;"/><text fill="#000000" font-family="sans-serif" font-size="14" font-style="italic" lengthAdjust="spacing" textLength="62.5488" x="431.971" y="357.9178">&#171;misuse&#187;</text><text fill="#000000" font-family="sans-serif" font-size="14" lengthAdjust="spacing" textLength="223.0225" x="351.7342" y="374.4061">MC1: Injection on search params</text></g><g id="elem_MC2"><ellipse cx="466.7845" cy="293.6815" fill="#F1F1F1" rx="129.2845" ry="28.2569" style="stroke:#181818;stroke-width:0.5;"/><text fill="#000000" font-family="sans-serif" font-size="14" font-style="italic" lengthAdjust="spacing" textLength="62.5488" x="432.2309" y="282.3767">&#171;misuse&#187;</text><text fill="#000000" font-family="sans-serif" font-size="14" lengthAdjust="spacing" textLength="225.8936" x="350.5585" y="298.865">MC2: Replay booking submission</text></g><polygon fill="none" points="152.346,361.0355,135.041,368.8159,143.1702,377.6428,152.346,361.0355" style="stroke:#181818;stroke-width:1.0;"/><path d="M108.0728,401.8094 C122.3762,388.6366 124.7385,386.4609 139.1056,373.2294 " fill="none" style="stroke:#181818;stroke-width:1.0;"/><polygon fill="#181818" points="778.7271,361.7217,768.8835,361.4016,774.0945,363.6028,771.8933,368.8139,778.7271,361.7217" style="stroke:#181818;stroke-width:1.0;"/><path d="M256.6722,360.9312 C259.2407,363.894 261.7035,366.9019 264,369.9246 C285.0512,397.6322 271.1413,421.0551 301,438.9246 C382.4215,487.6528 651.4649,495.0162 728,438.9246 C749.4279,423.2203 726.5733,400.0459 746,381.9246 C755.3923,373.1635 761.1349,368.8653 773.168,363.9791 " fill="none" style="stroke:#181818;stroke-width:1.0;"/><polygon fill="#181818" points="361.6021,159.7345,351.9223,157.9173,356.7368,160.8873,353.7668,165.7018,361.6021,159.7345" style="stroke:#181818;stroke-width:1.0;"/><path d="M228.5153,266.9119 C244.854,238.5043 269.47,204.0146 301,183.9246 C319.1082,172.3865 334.5812,166.137 355.7637,161.1179 " fill="none" style="stroke:#181818;stroke-width:1.0;"/><polygon fill="#181818" points="344.7915,242.4381,335.051,240.9809,339.9723,243.7704,337.1827,248.6917,344.7915,242.4381" style="stroke:#181818;stroke-width:1.0;"/><path d="M264.1161,275.0127 C275.9821,268.2733 288.6243,261.8583 301,256.9246 C314.9077,251.3801 324.0396,248.1751 339.0084,244.0369 " fill="none" style="stroke:#181818;stroke-width:1.0;"/><polygon fill="#181818" points="758.0203,307.559,748.3178,309.2503,753.8679,310.3442,752.774,315.8942,758.0203,307.559" style="stroke:#181818;stroke-width:1.0;"/><path d="M254.6821,360.9494 C257.838,363.984 260.965,366.9955 264,369.9246 C280.5094,385.8576 279.743,397.2897 301,405.9246 C437.7071,461.4567 488.7641,437.0476 633,405.9246 C678.3033,396.1491 696.0924,396.5379 728,362.9246 C743.1145,347.0021 729.7518,331.6884 746,316.9246 C749.752,313.5153 748.7987,313.7441 753.0374,310.9012 " fill="none" style="stroke:#181818;stroke-width:1.0;"/><polygon fill="#181818" points="800.1623,450.9666,790.3684,449.9277,795.4046,452.504,792.8283,457.5402,800.1623,450.9666" style="stroke:#181818;stroke-width:1.0;"/><path d="M108.1245,471.1552 C119.9692,475.6146 132.7292,479.612 145,481.9246 C399.6739,529.9209 474.7356,525.8756 728,470.9246 C751.7637,465.7685 771.3443,460.2789 794.453,452.8115 " fill="none" style="stroke:#181818;stroke-width:1.0;"/><polygon fill="#181818" points="1182.9864,353.1314,1174.0437,349.0048,1177.9869,353.0609,1173.9308,357.004,1182.9864,353.1314" style="stroke:#181818;stroke-width:1.0;"/><path d="M989.2388,350.3962 C1047.7299,351.2219 1115.1532,352.1738 1176.987,353.0467 " fill="none" style="stroke:#181818;stroke-width:1.0;stroke-dasharray:7.0,7.0;"/><text fill="#000000" font-family="sans-serif" font-size="13" lengthAdjust="spacing" textLength="59.3569" x="1073" y="346.4929">&#171;include&#187;</text><polygon fill="#181818" points="803.9835,175.2125,795.2953,170.574,798.9965,174.852,794.7185,178.5532,803.9835,175.2125" style="stroke:#181818;stroke-width:1.0;"/><path d="M572.1864,158.4561 C644.0962,163.6544 732.2468,170.0268 797.9991,174.7799 " fill="none" style="stroke:#181818;stroke-width:1.0;stroke-dasharray:7.0,7.0;"/><text fill="#000000" font-family="sans-serif" font-size="13" lengthAdjust="spacing" textLength="59.3569" x="660" y="161.4929">&#171;include&#187;</text><polygon fill="#181818" points="803.9907,188.3496,794.6559,185.2092,799.0126,188.8174,795.4044,193.1741,803.9907,188.3496" style="stroke:#181818;stroke-width:1.0;"/><path d="M589.1508,208.5393 C658.4119,202.0304 737.3215,194.6148 798.017,188.9109 " fill="none" style="stroke:#181818;stroke-width:1.0;stroke-dasharray:7.0,7.0;"/><text fill="#000000" font-family="sans-serif" font-size="13" lengthAdjust="spacing" textLength="59.3569" x="660" y="190.4929">&#171;include&#187;</text><polygon fill="#181818" points="1204.2571,147.3442,1195.1471,143.6016,1199.2591,147.4863,1195.3744,151.5984,1204.2571,147.3442" style="stroke:#181818;stroke-width:1.0;"/><path d="M972.1058,248.2932 C989.763,239.8613 1007.3787,229.4712 1022,216.9246 C1033.2272,207.2905 1027.4987,196.8354 1040,188.9246 C1088.3298,158.3418 1145.2943,149.0206 1198.2595,147.5148 " fill="none" style="stroke:#181818;stroke-width:1.0;stroke-dasharray:7.0,7.0;"/><text fill="#000000" font-family="sans-serif" font-size="13" lengthAdjust="spacing" textLength="59.3569" x="1073" y="146.4929">&#171;include&#187;</text><polygon fill="#181818" points="1227.8103,222.2432,1218.5657,218.8465,1222.8213,222.5735,1219.0943,226.829,1227.8103,222.2432" style="stroke:#181818;stroke-width:1.0;"/><path d="M1004.8334,248.3513 C1016.6723,245.9541 1028.5424,243.7552 1040,241.9246 C1102.6189,231.9198 1168.1367,226.1943 1221.8234,222.6396 " fill="none" style="stroke:#181818;stroke-width:1.0;stroke-dasharray:7.0,7.0;"/><text fill="#000000" font-family="sans-serif" font-size="13" lengthAdjust="spacing" textLength="57.1924" x="1074.1196" y="207.4929">&#171;extend&#187;</text><text fill="#000000" font-family="sans-serif" font-size="13" lengthAdjust="spacing" textLength="91.4316" x="1057" y="222.8035">(member only)</text><polygon fill="#181818" points="1221.2539,294.8132,1211.4219,294.2364,1216.5737,296.5728,1214.2373,301.7246,1221.2539,294.8132" style="stroke:#181818;stroke-width:1.0;"/><path d="M1022.3539,404.8223 C1087.4033,396.0288 1153.4574,384.9238 1165,374.9246 C1185.0798,357.5297 1163.9381,336.4293 1183,317.9246 C1193.6883,307.5487 1201.5202,302.2325 1215.6377,296.9247 " fill="none" style="stroke:#181818;stroke-width:1.0;stroke-dasharray:7.0,7.0;"/><text fill="#000000" font-family="sans-serif" font-size="13" lengthAdjust="spacing" textLength="59.3569" x="1073" y="370.4929">&#171;include&#187;</text><polygon fill="#181818" points="1198.3811,427.6192,1189.3374,423.719,1193.3814,427.6745,1189.4259,431.7185,1198.3811,427.6192" style="stroke:#181818;stroke-width:1.0;"/><path d="M1022.3289,427.4558 C1028.2992,427.6358 1034.21,427.7939 1040,427.9246 C1095.5414,429.1781 1109.4458,428.3077 1165,427.9246 C1175.8254,427.8499 1181.1055,427.8103 1192.3815,427.6856 " fill="none" style="stroke:#181818;stroke-width:1.0;stroke-dasharray:7.0,7.0;"/><text fill="#000000" font-family="sans-serif" font-size="13" lengthAdjust="spacing" textLength="57.1924" x="1074" y="423.4929">&#171;extend&#187;</text><polygon fill="#181818" points="1221.2149,281.089,1212.2529,277.0044,1216.2151,281.0419,1212.1776,285.0041,1221.2149,281.089" style="stroke:#181818;stroke-width:1.0;"/><path d="M1020.0566,279.1957 C1085.804,279.8145 1157.01,280.4847 1215.2151,281.0325 " fill="none" style="stroke:#181818;stroke-width:1.0;stroke-dasharray:7.0,7.0;"/><text fill="#000000" font-family="sans-serif" font-size="13" lengthAdjust="spacing" textLength="57.1924" x="1074.3889" y="259.4929">&#171;extend&#187;</text><text fill="#000000" font-family="sans-serif" font-size="13" lengthAdjust="spacing" textLength="121.9702" x="1042" y="274.8035">(member checkout)</text><polygon fill="#181818" points="389.1489,396.9886,379.3535,395.9634,384.3933,398.5327,381.824,403.5724,389.1489,396.9886" style="stroke:#181818;stroke-width:1.0;"/><path d="M236.224,427.0014 C250.5252,427.0257 267.7167,426.3734 283,423.9246 C318.5412,418.2298 351.1213,409.3355 383.4421,398.8415 " fill="none" style="stroke:#181818;stroke-width:1.0;"/><polygon fill="#181818" points="337.1381,315.8932,327.3223,315.0878,332.4183,317.5434,329.9626,322.6395,337.1381,315.8932" style="stroke:#181818;stroke-width:1.0;"/><path d="M236.0584,397.0605 C245.1167,388.4003 255.0146,378.8339 264,369.9246 C280.7388,353.3274 280.4567,343.4843 301,331.9246 C312.2721,325.5817 318.8798,322.277 331.4743,317.8735 " fill="none" style="stroke:#181818;stroke-width:1.0;"/><polygon fill="#181818" points="778.7431,353.949,769.561,350.3869,773.7489,354.1897,769.9461,358.3776,778.7431,353.949" style="stroke:#181818;stroke-width:1.0;"/><path d="M595.0512,362.8016 C653.9152,359.9648 717.0062,356.9243 772.75,354.2378 " fill="none" style="stroke:#181818;stroke-width:1.0;stroke-dasharray:7.0,7.0;"/><text fill="#000000" font-family="sans-serif" font-size="13" lengthAdjust="spacing" textLength="73.0933" x="653" y="351.4929">&#171;threatens&#187;</text><polygon fill="#181818" points="747.7715,283.1382,738.6241,279.4879,742.7752,283.3308,738.9323,287.482,747.7715,283.1382" style="stroke:#181818;stroke-width:1.0;"/><path d="M596.7501,288.9607 C644.7058,287.1118 693.2555,285.24 741.776,283.3694 " fill="none" style="stroke:#181818;stroke-width:1.0;stroke-dasharray:7.0,7.0;"/><text fill="#000000" font-family="sans-serif" font-size="13" lengthAdjust="spacing" textLength="73.0933" x="653" y="279.4929">&#171;threatens&#187;</text><!--SRC=[TLLTRnit47o_Nx7rGsCZE4MHP3y8WG2dAjmK4If4SH-A0WLrjv9OyyWhoPDoQlBVExmltraDOC0YTsTdDRDBlQ97nt4Y75CgnTwAZ7R64hia5YvXdGf7rvl7pqkw7O_6uodTrxVqqPH2-P8ggFD5Mjv4hsXZ2fimcHrvM_Z3d5AJk3UkoDdcviGMdtF6pMGykOl7T_7aDZuOpohU6lCazJxEbV1e88jJTdAlHrbAruuJBuscky20TXtv0rDUM8v_5KT1cuozq8AKA4tXoHcIdYow11-Tf3-4Mq4FLkI7epoJrCuBfKRH3xaL- -mPMDU95EyyUKDMxWyUijYQFtBeC1T1ebmaJsBF6rygfX0MUg-ubo0IRsmT5YTs9kCegkxewg5Wv__KruKMK8YrbudmdDvS4QIkWctcYhCjMwJ-Js8TQpFllKT7RAjGUw1txpBf2iUBHHJL-HJ7NnSDITJr3VmBKty9dj3xsXDQDvvSqRyH4GfMdbyz_lHsJXiMDZb0NVZbfHP1gAeBH8V9apczj-Q4G-KuP7E5ygv9dWoJftFwNVAfIVsHh34PABoGgaLCXuZPd5RY2N9JCqgLyt2gp21TWvaDCRS1es4a_4fCeOCjnq2R6wczepUWLEoxy4rJvZRgrxall4bCbbUPFHbGB54IvB6JATEkE9zBp5xANzewebzcRPGY9O-OR2iJTe3drkmXayDb2zc-OExc0kcR8XVR40Zt7GS-zp4_2wj9DJxNtxF9X9Dwq90ewIYnNjxAFDIVBZUGvBVFwygxhEi96lTnorephBmpMYXAXHTq_R1SVse1-pIt0mbNOPG-wB-RHSUVg-UgsgQwGUJq9tg0ncnzOZmTPMU-AxP8TUqq8gKF_XP5rH9W7nRLfFPFay5fEZZDdXTfKGy2q3GQXOEWEJYaJbIH1X9KQYBRYyZqkv5P4u6etuq5fweWV_7OsyK2vcHrNqOhFCJeh6qAzb_KQOF1Xq6T7aS7lEH83fmyuS6yYQBkhGbwmA6N5vDerUdpjYhd3vOnhjg1RTKfDBk8HHgh3pkzn-RZzsHLlIShwUK-l8AqBUaFaz9HA9bMwqR24n_PXbcqw2w02pngjgJNzHnXAgqy0xl4lpFUlNyANB0RHVY25FWkIISlIR7AMOuixPl5e7Nzn7pGuHBfhwdG4gNRMVpByexnSvJmCz5_]--></g></svg>